<mxfile host="app.diagrams.net" agent="Mozilla/5.0 (Windows NT 10.0; Win64; x64; rv:132.0) Gecko/20100101 Firefox/132.0" version="24.8.3">
  <diagram name="Page-1" id="5KZMsUgFKXDU2UZVbk3-">
    <mxGraphModel dx="1221" dy="761" grid="1" gridSize="10" guides="1" tooltips="1" connect="1" arrows="1" fold="1" page="1" pageScale="1" pageWidth="850" pageHeight="1100" math="0" shadow="0">
      <root>
        <mxCell id="0" />
        <mxCell id="1" parent="0" />
        <mxCell id="9N_nZDCYgbu5fATy6hCP-16" style="edgeStyle=orthogonalEdgeStyle;rounded=0;orthogonalLoop=1;jettySize=auto;html=1;exitX=1;exitY=0.5;exitDx=0;exitDy=0;entryX=0;entryY=0.5;entryDx=0;entryDy=0;" edge="1" parent="1" source="9N_nZDCYgbu5fATy6hCP-2" target="9N_nZDCYgbu5fATy6hCP-12">
          <mxGeometry relative="1" as="geometry">
            <Array as="points">
              <mxPoint x="190" y="60" />
            </Array>
          </mxGeometry>
        </mxCell>
        <mxCell id="9N_nZDCYgbu5fATy6hCP-25" value="Model File" style="edgeLabel;html=1;align=center;verticalAlign=middle;resizable=0;points=[];" vertex="1" connectable="0" parent="9N_nZDCYgbu5fATy6hCP-16">
          <mxGeometry x="0.3765" y="-2" relative="1" as="geometry">
            <mxPoint x="-19" y="-2" as="offset" />
          </mxGeometry>
        </mxCell>
        <mxCell id="9N_nZDCYgbu5fATy6hCP-2" value="MES" style="shape=rect;html=1;rounded=1;whiteSpace=wrap;align=center;" vertex="1" parent="1">
          <mxGeometry x="70" y="30" width="120" height="60" as="geometry" />
        </mxCell>
        <mxCell id="9N_nZDCYgbu5fATy6hCP-18" style="edgeStyle=orthogonalEdgeStyle;rounded=0;orthogonalLoop=1;jettySize=auto;html=1;exitX=1;exitY=0.5;exitDx=0;exitDy=0;entryX=0;entryY=0.5;entryDx=0;entryDy=0;" edge="1" parent="1" source="9N_nZDCYgbu5fATy6hCP-3" target="9N_nZDCYgbu5fATy6hCP-13">
          <mxGeometry relative="1" as="geometry" />
        </mxCell>
        <mxCell id="9N_nZDCYgbu5fATy6hCP-29" value="Electricity" style="edgeLabel;html=1;align=center;verticalAlign=middle;resizable=0;points=[];" vertex="1" connectable="0" parent="9N_nZDCYgbu5fATy6hCP-18">
          <mxGeometry x="-0.1273" y="-1" relative="1" as="geometry">
            <mxPoint as="offset" />
          </mxGeometry>
        </mxCell>
        <mxCell id="9N_nZDCYgbu5fATy6hCP-3" value="Energy Source" style="shape=rect;html=1;rounded=1;whiteSpace=wrap;align=center;" vertex="1" parent="1">
          <mxGeometry x="70" y="210" width="120" height="60" as="geometry" />
        </mxCell>
        <mxCell id="9N_nZDCYgbu5fATy6hCP-17" style="edgeStyle=orthogonalEdgeStyle;rounded=0;orthogonalLoop=1;jettySize=auto;html=1;exitX=1;exitY=0.5;exitDx=0;exitDy=0;entryX=0;entryY=0.5;entryDx=0;entryDy=0;" edge="1" parent="1" source="9N_nZDCYgbu5fATy6hCP-4" target="9N_nZDCYgbu5fATy6hCP-14">
          <mxGeometry relative="1" as="geometry">
            <mxPoint x="250" y="50" as="targetPoint" />
            <Array as="points">
              <mxPoint x="190" y="150" />
            </Array>
          </mxGeometry>
        </mxCell>
        <mxCell id="9N_nZDCYgbu5fATy6hCP-28" value="Filament" style="edgeLabel;html=1;align=center;verticalAlign=middle;resizable=0;points=[];" vertex="1" connectable="0" parent="9N_nZDCYgbu5fATy6hCP-17">
          <mxGeometry x="-0.0909" y="-1" relative="1" as="geometry">
            <mxPoint as="offset" />
          </mxGeometry>
        </mxCell>
        <mxCell id="9N_nZDCYgbu5fATy6hCP-4" value="Material Transporter" style="shape=rect;html=1;rounded=1;whiteSpace=wrap;align=center;" vertex="1" parent="1">
          <mxGeometry x="70" y="120" width="120" height="60" as="geometry" />
        </mxCell>
        <mxCell id="9N_nZDCYgbu5fATy6hCP-6" value="Environment" style="shape=rect;html=1;rounded=1;whiteSpace=wrap;align=center;" vertex="1" parent="1">
          <mxGeometry x="720" y="210" width="120" height="60" as="geometry" />
        </mxCell>
        <mxCell id="9N_nZDCYgbu5fATy6hCP-35" style="edgeStyle=orthogonalEdgeStyle;rounded=0;orthogonalLoop=1;jettySize=auto;html=1;exitX=1;exitY=0.25;exitDx=0;exitDy=0;entryX=0;entryY=0.25;entryDx=0;entryDy=0;dashed=1;" edge="1" parent="1" source="9N_nZDCYgbu5fATy6hCP-12" target="9N_nZDCYgbu5fATy6hCP-20">
          <mxGeometry relative="1" as="geometry" />
        </mxCell>
        <mxCell id="9N_nZDCYgbu5fATy6hCP-36" value="Start Signal" style="edgeLabel;html=1;align=center;verticalAlign=middle;resizable=0;points=[];" vertex="1" connectable="0" parent="9N_nZDCYgbu5fATy6hCP-35">
          <mxGeometry x="-0.38" y="-2" relative="1" as="geometry">
            <mxPoint x="19" y="-17" as="offset" />
          </mxGeometry>
        </mxCell>
        <mxCell id="9N_nZDCYgbu5fATy6hCP-12" value="1. Accept 3D Specification" style="rounded=0;whiteSpace=wrap;html=1;" vertex="1" parent="1">
          <mxGeometry x="305" y="30" width="120" height="60" as="geometry" />
        </mxCell>
        <mxCell id="9N_nZDCYgbu5fATy6hCP-75" style="edgeStyle=orthogonalEdgeStyle;rounded=0;orthogonalLoop=1;jettySize=auto;html=1;exitX=1;exitY=0.5;exitDx=0;exitDy=0;entryX=0;entryY=0.5;entryDx=0;entryDy=0;" edge="1" parent="1" source="9N_nZDCYgbu5fATy6hCP-13" target="9N_nZDCYgbu5fATy6hCP-74">
          <mxGeometry relative="1" as="geometry" />
        </mxCell>
        <mxCell id="9N_nZDCYgbu5fATy6hCP-76" value="Electricity" style="edgeLabel;html=1;align=center;verticalAlign=middle;resizable=0;points=[];" vertex="1" connectable="0" parent="9N_nZDCYgbu5fATy6hCP-75">
          <mxGeometry x="0.0154" y="1" relative="1" as="geometry">
            <mxPoint as="offset" />
          </mxGeometry>
        </mxCell>
        <mxCell id="9N_nZDCYgbu5fATy6hCP-13" value="4. Distribute Electricity" style="rounded=0;whiteSpace=wrap;html=1;" vertex="1" parent="1">
          <mxGeometry x="300" y="210" width="120" height="60" as="geometry" />
        </mxCell>
        <mxCell id="9N_nZDCYgbu5fATy6hCP-33" style="edgeStyle=orthogonalEdgeStyle;rounded=0;orthogonalLoop=1;jettySize=auto;html=1;exitX=1;exitY=0.25;exitDx=0;exitDy=0;entryX=0;entryY=0.75;entryDx=0;entryDy=0;" edge="1" parent="1" source="9N_nZDCYgbu5fATy6hCP-14" target="9N_nZDCYgbu5fATy6hCP-20">
          <mxGeometry relative="1" as="geometry" />
        </mxCell>
        <mxCell id="9N_nZDCYgbu5fATy6hCP-34" value="Filament" style="edgeLabel;html=1;align=center;verticalAlign=middle;resizable=0;points=[];" vertex="1" connectable="0" parent="9N_nZDCYgbu5fATy6hCP-33">
          <mxGeometry x="-0.8467" relative="1" as="geometry">
            <mxPoint x="18" as="offset" />
          </mxGeometry>
        </mxCell>
        <mxCell id="9N_nZDCYgbu5fATy6hCP-14" value="3. Accept Filament" style="rounded=0;whiteSpace=wrap;html=1;" vertex="1" parent="1">
          <mxGeometry x="300" y="120" width="120" height="60" as="geometry" />
        </mxCell>
        <mxCell id="9N_nZDCYgbu5fATy6hCP-62" style="edgeStyle=orthogonalEdgeStyle;rounded=0;orthogonalLoop=1;jettySize=auto;html=1;exitX=1;exitY=0.5;exitDx=0;exitDy=0;entryX=0;entryY=0.5;entryDx=0;entryDy=0;dashed=1;" edge="1" parent="1" source="9N_nZDCYgbu5fATy6hCP-15" target="9N_nZDCYgbu5fATy6hCP-56">
          <mxGeometry relative="1" as="geometry" />
        </mxCell>
        <mxCell id="9N_nZDCYgbu5fATy6hCP-63" value="Signal" style="edgeLabel;html=1;align=center;verticalAlign=middle;resizable=0;points=[];" vertex="1" connectable="0" parent="9N_nZDCYgbu5fATy6hCP-62">
          <mxGeometry x="-0.4074" y="-1" relative="1" as="geometry">
            <mxPoint x="10" y="-8" as="offset" />
          </mxGeometry>
        </mxCell>
        <mxCell id="9N_nZDCYgbu5fATy6hCP-15" value="2. Accept emergency stop signal" style="rounded=0;whiteSpace=wrap;html=1;" vertex="1" parent="1">
          <mxGeometry x="270" y="300" width="120" height="60" as="geometry" />
        </mxCell>
        <mxCell id="9N_nZDCYgbu5fATy6hCP-39" style="edgeStyle=orthogonalEdgeStyle;rounded=0;orthogonalLoop=1;jettySize=auto;html=1;exitX=0.5;exitY=1;exitDx=0;exitDy=0;entryX=0.5;entryY=0;entryDx=0;entryDy=0;" edge="1" parent="1" source="9N_nZDCYgbu5fATy6hCP-20" target="9N_nZDCYgbu5fATy6hCP-24">
          <mxGeometry relative="1" as="geometry">
            <mxPoint x="560" y="130" as="targetPoint" />
          </mxGeometry>
        </mxCell>
        <mxCell id="9N_nZDCYgbu5fATy6hCP-40" value="Filament" style="edgeLabel;html=1;align=center;verticalAlign=middle;resizable=0;points=[];" vertex="1" connectable="0" parent="9N_nZDCYgbu5fATy6hCP-39">
          <mxGeometry x="-0.16" y="1" relative="1" as="geometry">
            <mxPoint x="19" as="offset" />
          </mxGeometry>
        </mxCell>
        <mxCell id="9N_nZDCYgbu5fATy6hCP-20" value="5. Consume filament" style="rounded=0;whiteSpace=wrap;html=1;" vertex="1" parent="1">
          <mxGeometry x="520" y="30" width="120" height="60" as="geometry" />
        </mxCell>
        <mxCell id="9N_nZDCYgbu5fATy6hCP-41" style="edgeStyle=orthogonalEdgeStyle;rounded=0;orthogonalLoop=1;jettySize=auto;html=1;exitX=0.5;exitY=1;exitDx=0;exitDy=0;" edge="1" parent="1" source="9N_nZDCYgbu5fATy6hCP-24" target="9N_nZDCYgbu5fATy6hCP-22">
          <mxGeometry relative="1" as="geometry">
            <mxPoint x="560" y="210" as="sourcePoint" />
          </mxGeometry>
        </mxCell>
        <mxCell id="9N_nZDCYgbu5fATy6hCP-42" value="Filament" style="edgeLabel;html=1;align=center;verticalAlign=middle;resizable=0;points=[];" vertex="1" connectable="0" parent="9N_nZDCYgbu5fATy6hCP-41">
          <mxGeometry x="-0.2" y="-1" relative="1" as="geometry">
            <mxPoint x="21" as="offset" />
          </mxGeometry>
        </mxCell>
        <mxCell id="9N_nZDCYgbu5fATy6hCP-46" style="edgeStyle=orthogonalEdgeStyle;rounded=0;orthogonalLoop=1;jettySize=auto;html=1;entryX=0;entryY=0.5;entryDx=0;entryDy=0;exitX=1;exitY=0.5;exitDx=0;exitDy=0;" edge="1" parent="1" source="9N_nZDCYgbu5fATy6hCP-24" target="9N_nZDCYgbu5fATy6hCP-6">
          <mxGeometry relative="1" as="geometry">
            <mxPoint x="710" y="300" as="targetPoint" />
            <mxPoint x="660" y="160" as="sourcePoint" />
          </mxGeometry>
        </mxCell>
        <mxCell id="9N_nZDCYgbu5fATy6hCP-48" value="Heat" style="edgeLabel;html=1;align=center;verticalAlign=middle;resizable=0;points=[];" vertex="1" connectable="0" parent="9N_nZDCYgbu5fATy6hCP-46">
          <mxGeometry x="-0.8" y="1" relative="1" as="geometry">
            <mxPoint as="offset" />
          </mxGeometry>
        </mxCell>
        <mxCell id="9N_nZDCYgbu5fATy6hCP-21" value="8. Melt filament" style="rounded=0;whiteSpace=wrap;html=1;" vertex="1" parent="1">
          <mxGeometry x="520" y="360" width="120" height="60" as="geometry" />
        </mxCell>
        <mxCell id="9N_nZDCYgbu5fATy6hCP-43" style="edgeStyle=orthogonalEdgeStyle;rounded=0;orthogonalLoop=1;jettySize=auto;html=1;exitX=0.5;exitY=1;exitDx=0;exitDy=0;entryX=0.5;entryY=0;entryDx=0;entryDy=0;" edge="1" parent="1" source="9N_nZDCYgbu5fATy6hCP-22" target="9N_nZDCYgbu5fATy6hCP-21">
          <mxGeometry relative="1" as="geometry">
            <mxPoint x="560" y="340" as="targetPoint" />
          </mxGeometry>
        </mxCell>
        <mxCell id="9N_nZDCYgbu5fATy6hCP-44" value="Filament" style="edgeLabel;html=1;align=center;verticalAlign=middle;resizable=0;points=[];" vertex="1" connectable="0" parent="9N_nZDCYgbu5fATy6hCP-43">
          <mxGeometry x="-0.05" y="1" relative="1" as="geometry">
            <mxPoint x="19" y="-4" as="offset" />
          </mxGeometry>
        </mxCell>
        <mxCell id="9N_nZDCYgbu5fATy6hCP-22" value="7. Print product" style="rounded=0;whiteSpace=wrap;html=1;" vertex="1" parent="1">
          <mxGeometry x="520" y="250" width="120" height="60" as="geometry" />
        </mxCell>
        <mxCell id="9N_nZDCYgbu5fATy6hCP-45" style="edgeStyle=orthogonalEdgeStyle;rounded=0;orthogonalLoop=1;jettySize=auto;html=1;entryX=0;entryY=0.5;entryDx=0;entryDy=0;exitX=1;exitY=0.5;exitDx=0;exitDy=0;" edge="1" parent="1" source="9N_nZDCYgbu5fATy6hCP-21" target="9N_nZDCYgbu5fATy6hCP-6">
          <mxGeometry relative="1" as="geometry">
            <mxPoint x="660" y="390" as="sourcePoint" />
          </mxGeometry>
        </mxCell>
        <mxCell id="9N_nZDCYgbu5fATy6hCP-47" value="Heat" style="edgeLabel;html=1;align=center;verticalAlign=middle;resizable=0;points=[];" vertex="1" connectable="0" parent="9N_nZDCYgbu5fATy6hCP-45">
          <mxGeometry x="-0.8091" relative="1" as="geometry">
            <mxPoint as="offset" />
          </mxGeometry>
        </mxCell>
        <mxCell id="9N_nZDCYgbu5fATy6hCP-24" value="6. Heat Print Bed" style="rounded=0;whiteSpace=wrap;html=1;" vertex="1" parent="1">
          <mxGeometry x="520" y="140" width="120" height="60" as="geometry" />
        </mxCell>
        <mxCell id="9N_nZDCYgbu5fATy6hCP-49" style="edgeStyle=orthogonalEdgeStyle;rounded=0;orthogonalLoop=1;jettySize=auto;html=1;exitX=1;exitY=0.5;exitDx=0;exitDy=0;entryX=0;entryY=0.5;entryDx=0;entryDy=0;dashed=1;" edge="1" parent="1" source="9N_nZDCYgbu5fATy6hCP-37" target="9N_nZDCYgbu5fATy6hCP-15">
          <mxGeometry relative="1" as="geometry" />
        </mxCell>
        <mxCell id="9N_nZDCYgbu5fATy6hCP-50" value="Stop Signal" style="edgeLabel;html=1;align=center;verticalAlign=middle;resizable=0;points=[];" vertex="1" connectable="0" parent="9N_nZDCYgbu5fATy6hCP-49">
          <mxGeometry x="-0.275" y="3" relative="1" as="geometry">
            <mxPoint as="offset" />
          </mxGeometry>
        </mxCell>
        <mxCell id="9N_nZDCYgbu5fATy6hCP-37" value="User" style="shape=rect;html=1;rounded=1;whiteSpace=wrap;align=center;" vertex="1" parent="1">
          <mxGeometry x="70" y="300" width="120" height="60" as="geometry" />
        </mxCell>
        <mxCell id="9N_nZDCYgbu5fATy6hCP-53" value="" style="shape=table;startSize=0;container=1;collapsible=0;childLayout=tableLayout;fontSize=11;fillColor=none;strokeColor=none;" vertex="1" parent="1">
          <mxGeometry x="450" y="300" width="60" height="60" as="geometry" />
        </mxCell>
        <mxCell id="9N_nZDCYgbu5fATy6hCP-54" value="" style="shape=tableRow;horizontal=0;startSize=0;swimlaneHead=0;swimlaneBody=0;strokeColor=inherit;top=0;left=0;bottom=0;right=0;collapsible=0;dropTarget=0;fillColor=none;points=[[0,0.5],[1,0.5]];portConstraint=eastwest;fontSize=16;" vertex="1" parent="9N_nZDCYgbu5fATy6hCP-53">
          <mxGeometry width="60" height="15" as="geometry" />
        </mxCell>
        <mxCell id="9N_nZDCYgbu5fATy6hCP-55" value="F5" style="shape=partialRectangle;html=1;whiteSpace=wrap;connectable=0;strokeColor=inherit;overflow=hidden;fillColor=none;top=0;left=0;bottom=0;right=0;pointerEvents=1;fontSize=12;align=left;spacingLeft=5;" vertex="1" parent="9N_nZDCYgbu5fATy6hCP-54">
          <mxGeometry width="60" height="15" as="geometry">
            <mxRectangle width="60" height="15" as="alternateBounds" />
          </mxGeometry>
        </mxCell>
        <mxCell id="9N_nZDCYgbu5fATy6hCP-56" value="" style="shape=tableRow;horizontal=0;startSize=0;swimlaneHead=0;swimlaneBody=0;strokeColor=inherit;top=0;left=0;bottom=0;right=0;collapsible=0;dropTarget=0;fillColor=none;points=[[0,0.5],[1,0.5]];portConstraint=eastwest;fontSize=16;" vertex="1" parent="9N_nZDCYgbu5fATy6hCP-53">
          <mxGeometry y="15" width="60" height="15" as="geometry" />
        </mxCell>
        <mxCell id="9N_nZDCYgbu5fATy6hCP-57" value="F6" style="shape=partialRectangle;html=1;whiteSpace=wrap;connectable=0;strokeColor=inherit;overflow=hidden;fillColor=none;top=0;left=0;bottom=0;right=0;pointerEvents=1;fontSize=12;align=left;spacingLeft=5;" vertex="1" parent="9N_nZDCYgbu5fATy6hCP-56">
          <mxGeometry width="60" height="15" as="geometry">
            <mxRectangle width="60" height="15" as="alternateBounds" />
          </mxGeometry>
        </mxCell>
        <mxCell id="9N_nZDCYgbu5fATy6hCP-58" value="" style="shape=tableRow;horizontal=0;startSize=0;swimlaneHead=0;swimlaneBody=0;strokeColor=inherit;top=0;left=0;bottom=0;right=0;collapsible=0;dropTarget=0;fillColor=none;points=[[0,0.5],[1,0.5]];portConstraint=eastwest;fontSize=16;" vertex="1" parent="9N_nZDCYgbu5fATy6hCP-53">
          <mxGeometry y="30" width="60" height="15" as="geometry" />
        </mxCell>
        <mxCell id="9N_nZDCYgbu5fATy6hCP-59" value="F7" style="shape=partialRectangle;html=1;whiteSpace=wrap;connectable=0;strokeColor=inherit;overflow=hidden;fillColor=none;top=0;left=0;bottom=0;right=0;pointerEvents=1;fontSize=12;align=left;spacingLeft=5;" vertex="1" parent="9N_nZDCYgbu5fATy6hCP-58">
          <mxGeometry width="60" height="15" as="geometry">
            <mxRectangle width="60" height="15" as="alternateBounds" />
          </mxGeometry>
        </mxCell>
        <mxCell id="9N_nZDCYgbu5fATy6hCP-60" style="shape=tableRow;horizontal=0;startSize=0;swimlaneHead=0;swimlaneBody=0;strokeColor=inherit;top=0;left=0;bottom=0;right=0;collapsible=0;dropTarget=0;fillColor=none;points=[[0,0.5],[1,0.5]];portConstraint=eastwest;fontSize=16;" vertex="1" parent="9N_nZDCYgbu5fATy6hCP-53">
          <mxGeometry y="45" width="60" height="15" as="geometry" />
        </mxCell>
        <mxCell id="9N_nZDCYgbu5fATy6hCP-61" value="F8" style="shape=partialRectangle;html=1;whiteSpace=wrap;connectable=0;strokeColor=inherit;overflow=hidden;fillColor=none;top=0;left=0;bottom=0;right=0;pointerEvents=1;fontSize=12;align=left;spacingLeft=5;" vertex="1" parent="9N_nZDCYgbu5fATy6hCP-60">
          <mxGeometry width="60" height="15" as="geometry">
            <mxRectangle width="60" height="15" as="alternateBounds" />
          </mxGeometry>
        </mxCell>
        <UserObject label="All" placeholders="1" name="Variable" id="9N_nZDCYgbu5fATy6hCP-74">
          <mxCell style="text;html=1;strokeColor=none;fillColor=none;align=center;verticalAlign=middle;whiteSpace=wrap;overflow=hidden;" vertex="1" parent="1">
            <mxGeometry x="485" y="230" width="35" height="20" as="geometry" />
          </mxCell>
        </UserObject>
      </root>
    </mxGraphModel>
  </diagram>
</mxfile>
